<svg xmlns="http://www.w3.org/2000/svg" version="1.1" xmlns:xlink="http://www.w3.org/1999/xlink" width="1500" height="219" viewBox="0 0 1500 219"><svg xml:space="preserve" width="1500" height="219" data-version="2" data-id="lg_uQV8p7yV5eCzARdEkZ" viewBox="0 0 571 219" x="0" y="0"><rect width="100%" height="100%" fill="transparent"></rect><path fill="#fff" d="M137.569 109.375v-15.68h45.78v15.68h-13.47v32.67h-18.83v-32.67zm51.17 32.67v-48.35h6.93l23.37 21.95 24.01-21.95h6.69v48.35h-19.89v-15.69l-12.35 13.57-12.02-13.2v15.32zm87.09 0h-21.37l24.04-45.9q.88-1.66 2.72-2.59 1.85-.92 3.85-.92 1.78 0 3.49.82 1.71.81 2.65 2.51l25.8 46.08h-24.56l-1.9-4.79h-13.08zm8.27-27.46-5.15 13.08h9.78zm57.28 27.46h-19.77v-48.35l1.89-.14q1.89-.13 4.96-.35 3.08-.21 6.72-.4 3.65-.2 7.24-.34 3.59-.13 6.4-.13 5.88 0 9.96 1.53 4.09 1.52 6.6 4.04 2.51 2.51 3.68 5.54 1.17 3.02 1.17 6.05 0 5.3-2.7 9.1-2.69 3.8-6.87 6.28l13.14 17.17h-23.92l-8.5-14.02zm-.13-34.67v11.84q5.88-2.18 8.44-4.74 2.55-2.56 2.55-5.49 0-2.46-.9-3.36-.91-.91-2.28-.91-.87 0-1.81.29-.94.28-1.97.71zm38.39-13.68h19.16v14.86l11.66-14.86h19.65l-15.62 20.37 18.04 27.98h-22.07l-10.11-17.11-1.12 1.97v15.14h-19.59z"></path><path fill="#e8c900" d="M68.649 177.215h-1.52l-2.9 5.19-2.88-5.19h-1.52l3.73 6.39v4.81h1.36v-4.83zm11.13 5.6q0-1.26.56-2.25.55-1 1.51-1.57.96-.58 2.17-.58 1.24 0 2.19.58.95.57 1.5 1.57.55.99.55 2.25 0 1.27-.55 2.26-.55.99-1.5 1.57-.95.57-2.19.57-1.21 0-2.17-.57-.96-.58-1.51-1.57-.56-.99-.56-2.26m-1.44 0q0 1.22.43 2.27.42 1.06 1.19 1.84.77.77 1.81 1.21 1.04.44 2.25.44 1.24 0 2.27-.44t1.8-1.21q.77-.78 1.19-1.84.42-1.05.42-2.27 0-1.23-.42-2.28-.42-1.05-1.19-1.82-.77-.78-1.8-1.22-1.03-.44-2.27-.44-1.21 0-2.25.44t-1.81 1.22q-.77.77-1.19 1.82-.43 1.05-.43 2.28m23.54-5.6h-1.36v7.52q0 .83.26 1.54.27.7.77 1.21.51.52 1.21.8.7.29 1.57.29.86 0 1.57-.29.7-.28 1.2-.8.51-.51.77-1.21.27-.71.27-1.54v-7.52h-1.36v7.52q0 1.15-.63 1.86-.62.7-1.82.7-1.2 0-1.83-.7-.62-.71-.62-1.86zm21.23 5.68h-1.52l3.84 5.52h1.68zm-2.16-5.68h-1.36v11.2h1.36zm-.61 0v1.2h2.29q.72 0 1.27.26.56.25.87.73.31.48.31 1.17t-.31 1.17q-.31.48-.87.74-.55.25-1.27.25h-2.29v1.2h2.29q1.09 0 1.95-.41.85-.4 1.36-1.16.5-.76.5-1.79 0-1.04-.5-1.79-.51-.75-1.36-1.16-.86-.41-1.95-.41zm32.32 0h-1.36v11.2h1.36zm-.6 0v1.28h2.28q1.09 0 1.77.52.68.52.68 1.56 0 1.03-.68 1.55-.68.53-1.77.53h-2.28v1.28h2.28q1.09 0 1.95-.41.85-.4 1.36-1.16.5-.76.5-1.79 0-1.04-.5-1.79-.51-.75-1.36-1.16-.86-.41-1.95-.41zm18.54 6.56-.48 1.28h5.92l-.48-1.28zm.56.42 1.89-4.45 1.92 4.51.13.32 1.63 3.84h1.52l-5.2-11.76-5.2 11.76h1.52l1.66-3.93zm17.84.83-1.09.74q.37.73.95 1.38.59.65 1.36 1.04.78.39 1.69.39.67 0 1.29-.22.62-.23 1.1-.64.49-.42.77-1.01.28-.59.28-1.33 0-.77-.27-1.32t-.7-.94q-.42-.39-.92-.65-.49-.26-.94-.42-.98-.33-1.54-.68-.57-.34-.81-.73-.24-.39-.24-.86 0-.54.41-.98.42-.44 1.33-.44.66 0 1.11.25.46.26.78.66t.53.82l1.17-.68q-.28-.59-.76-1.12-.48-.54-1.16-.88-.68-.35-1.59-.35-.94 0-1.68.38-.73.37-1.15 1.03-.42.66-.42 1.49 0 .77.3 1.29.3.53.76.89t.98.59q.51.24.92.38.64.22 1.21.5t.92.73q.35.45.35 1.2 0 .77-.54 1.27-.54.49-1.44.49-.67 0-1.2-.29-.53-.28-.95-.8-.43-.51-.81-1.18m17.74 0-1.08.74q.36.73.95 1.38.58.65 1.36 1.04.77.39 1.69.39.67 0 1.28-.22.62-.23 1.11-.64.49-.42.77-1.01.28-.59.28-1.33 0-.77-.28-1.32-.27-.55-.69-.94-.43-.39-.92-.65-.5-.26-.95-.42-.97-.33-1.54-.68-.57-.34-.81-.73-.24-.39-.24-.86 0-.54.42-.98.41-.44 1.33-.44.65 0 1.11.25.45.26.77.66t.53.82l1.17-.68q-.27-.59-.75-1.12-.48-.54-1.16-.88-.68-.35-1.59-.35-.95 0-1.68.38-.74.37-1.16 1.03-.41.66-.41 1.49 0 .77.29 1.29.3.53.76.89.47.36.98.59.51.24.93.38.64.22 1.21.5.56.28.92.73.35.45.35 1.2 0 .77-.55 1.27-.54.49-1.44.49-.67 0-1.2-.29-.52-.28-.95-.8-.42-.51-.81-1.18m18.69-7.81h-1.36v11.2h1.36zm-.61 0v1.28h2.29q1.09 0 1.77.52.68.52.68 1.56 0 1.03-.68 1.55-.68.53-1.77.53h-2.29v1.28h2.29q1.09 0 1.95-.41.85-.4 1.36-1.16.5-.76.5-1.79 0-1.04-.5-1.79-.51-.75-1.36-1.16-.86-.41-1.95-.41zm17.8 5.6q0-1.26.55-2.25.55-1 1.51-1.57.96-.58 2.18-.58 1.23 0 2.18.58.95.57 1.5 1.57.56.99.56 2.25 0 1.27-.56 2.26-.55.99-1.5 1.57-.95.57-2.18.57-1.22 0-2.18-.57-.96-.58-1.51-1.57-.55-.99-.55-2.26m-1.44 0q0 1.22.42 2.27.42 1.06 1.19 1.84.77.77 1.81 1.21 1.04.44 2.26.44 1.23 0 2.26-.44 1.03-.44 1.8-1.21.77-.78 1.19-1.84.43-1.05.43-2.27 0-1.23-.43-2.28-.42-1.05-1.19-1.82-.77-.78-1.8-1.22-1.03-.44-2.26-.44-1.22 0-2.26.44-1.04.44-1.81 1.22-.77.77-1.19 1.82-.42 1.05-.42 2.28m25.77.08h-1.52l3.84 5.52h1.68zm-2.16-5.68h-1.36v11.2h1.36zm-.61 0v1.2h2.29q.72 0 1.27.26.56.25.87.73.31.48.31 1.17t-.31 1.17q-.31.48-.87.74-.55.25-1.27.25h-2.29v1.2h2.29q1.09 0 1.95-.41.85-.4 1.36-1.16.5-.76.5-1.79 0-1.04-.5-1.79-.51-.75-1.36-1.16-.86-.41-1.95-.41zm16.07 0v1.28h2.88v9.92h1.36v-9.92h2.88v-1.28zm30.19 0v1.28h2.88v9.92h1.36v-9.92h2.88v-1.28zm18.34 5.6q0-1.26.55-2.25.55-1 1.51-1.57.96-.58 2.18-.58 1.23 0 2.18.58.95.57 1.5 1.57.56.99.56 2.25 0 1.27-.56 2.26-.55.99-1.5 1.57-.95.57-2.18.57-1.22 0-2.18-.57-.96-.58-1.51-1.57-.55-.99-.55-2.26m-1.44 0q0 1.22.42 2.27.42 1.06 1.19 1.84.77.77 1.81 1.21 1.04.44 2.26.44 1.23 0 2.26-.44 1.03-.44 1.8-1.21.77-.78 1.19-1.84.43-1.05.43-2.27 0-1.23-.43-2.28-.42-1.05-1.19-1.82-.77-.78-1.8-1.22-1.03-.44-2.26-.44-1.22 0-2.26.44-1.04.44-1.81 1.22-.77.77-1.19 1.82-.42 1.05-.42 2.28m48.91-5.6-2.91 8.24-3.33-8.8-3.27 8.8-2.97-8.24h-1.52l4.4 11.76 3.36-8.7 3.36 8.7 4.4-11.76zm13.49 6.56-.48 1.28h5.92l-.48-1.28zm.56.42 1.88-4.45 1.92 4.51.13.32 1.63 3.84h1.52l-5.2-11.76-5.2 11.76h1.52l1.67-3.93zm16.3-6.98v1.28h2.88v9.92h1.36v-9.92h2.88v-1.28zm18.29 9.92v1.28h5.65v-1.28zm0-9.92v1.28h5.65v-1.28zm0 4.48v1.28h5.33v-1.28zm.61-4.48h-1.36v11.2h1.36zm19.93 5.68h-1.52l3.84 5.52h1.68zm-2.16-5.68h-1.36v11.2h1.36zm-.61 0v1.2h2.29q.72 0 1.27.26.56.25.87.73.31.48.31 1.17t-.31 1.17q-.31.48-.87.74-.55.25-1.27.25h-2.29v1.2h2.29q1.09 0 1.95-.41.85-.4 1.36-1.16.5-.76.5-1.79 0-1.04-.5-1.79-.51-.75-1.36-1.16-.86-.41-1.95-.41zm30.07 0-2.91 8.24-3.33-8.8-3.27 8.8-2.97-8.24h-1.52l4.4 11.76 3.36-8.7 3.36 8.7 4.4-11.76zm13.49 6.56-.48 1.28h5.92l-.48-1.28zm.56.42 1.88-4.45 1.92 4.51.13.32 1.63 3.84h1.52l-5.2-11.76-5.2 11.76h1.52l1.67-3.93zm25.04-6.98h-1.52l-2.9 5.19-2.88-5.19h-1.52l3.73 6.39v4.81h1.36v-4.83zm10.75 7.81-1.09.74q.37.73.95 1.38.59.65 1.36 1.04.78.39 1.69.39.67 0 1.29-.22.61-.23 1.1-.64.49-.42.77-1.01.28-.59.28-1.33 0-.77-.27-1.32t-.7-.94q-.42-.39-.92-.65-.49-.26-.94-.42-.98-.33-1.55-.68-.56-.34-.8-.73-.24-.39-.24-.86 0-.54.41-.98.42-.44 1.33-.44.66 0 1.11.25.46.26.78.66t.53.82l1.16-.68q-.27-.59-.75-1.12-.48-.54-1.16-.88-.68-.35-1.59-.35-.94 0-1.68.38-.74.37-1.15 1.03-.42.66-.42 1.49 0 .77.3 1.29.29.53.76.89.46.36.97.59.52.24.93.38.64.22 1.21.5t.92.73q.35.45.35 1.2 0 .77-.54 1.27-.55.49-1.44.49-.67 0-1.2-.29-.53-.28-.95-.8-.43-.51-.81-1.18M377.672 35.57c-2.056-.71-171.03 0-171.03 0-3.36 1.384-9.268 3.756-9.209 12.55.04 8.222 6.146 15.139 17.51 15.08 0 0 52.076.79 69.408-.08 31.146-1.58 95.317-13.32 98.914-21.186.652-1.383-3.736-5.73-5.593-6.363M283.758 57.31c-17.668.435-70.673-.04-70.673-.04-5.929-.592-8.695-4.15-8.735-9.328a9.684 9.684 0 0 1 4.071-7.944l168.836-.396c2.41 5.297-57.412 16.838-93.5 17.708"></path><path fill="#eade8e" d="M350.36 23.495h-54.35L265.735 4.602v7.945l18.972 11.186-58.36-.238h-13.834c-5.672 0-10.02-7.905-13.972-13.834h12.767l-5.257-7.905h-18.38c1.561 5.93 9.052 19.803 18.854 27.253v.415h149.25z"></path><path fill="#fff" stroke="#fff" stroke-miterlimit="10" stroke-width="5" d="M3 41.5c5.87 0 5.87 6 11.75 6s5.87-6 11.75-6 5.87 6 11.74 6 5.87-6 11.75-6 5.87 6 11.75 6 5.87-6 11.75-6 5.88 6 11.76 6 5.87-6 11.75-6m-94 10c5.87 0 5.87 6 11.75 6s5.87-6 11.75-6 5.87 6 11.74 6 5.87-6 11.75-6 5.87 6 11.75 6 5.87-6 11.75-6 5.88 6 11.76 6 5.87-6 11.75-6" transform="matrix(5.6566 0 0 .5607 2.67 183.6)"></path></svg></svg>